if (_typeface_js && _typeface_js.loadFace) _typeface_js.loadFace({"glyphs":{"S":{"x_min":25.078125,"x_max":783.171875,"ha":809,"o":"m 426 937 q 588 920 505 937 q 742 857 671 902 l 742 605 q 570 684 652 662 q 422 706 489 706 q 320 662 320 706 q 349 624 320 637 q 448 590 378 610 l 524 567 l 631 522 l 704 472 l 760 395 l 783 291 l 778 236 l 746 154 l 698 95 l 625 44 l 550 13 l 374 -11 q 207 10 290 -11 q 25 86 124 32 l 25 349 q 211 255 110 290 q 391 219 312 219 q 473 233 440 219 q 505 275 505 247 q 472 324 505 307 q 374 356 438 340 l 348 363 l 272 385 l 173 429 l 101 486 l 54 565 l 42 650 l 57 745 l 116 837 l 216 900 l 326 930 l 426 937 "},"F":{"x_min":74.265625,"x_max":745.5625,"ha":752,"o":"m 687 559 l 687 337 l 352 337 l 352 0 l 74 0 l 74 925 l 745 925 l 745 694 l 352 694 l 352 559 l 687 559 "},"T":{"x_min":16.390625,"x_max":791.859375,"ha":809,"o":"m 265 0 l 265 694 l 16 694 l 16 925 l 791 925 l 791 694 l 543 694 l 543 0 l 265 0 "},"N":{"x_min":68.46875,"x_max":1029.125,"ha":1100,"o":"m 334 0 l 68 0 l 68 925 l 363 925 l 762 410 l 762 925 l 1029 925 l 1029 0 l 733 0 l 334 515 l 334 0 "},"K":{"x_min":74.265625,"x_max":1023.34375,"ha":1042,"o":"m 352 925 l 352 0 l 74 0 l 74 925 l 352 925 m 363 491 l 626 925 l 965 925 l 679 500 l 1023 0 l 673 0 l 363 491 "},"Y":{"x_min":2.890625,"x_max":980.90625,"ha":984,"o":"m 353 434 l 2 925 l 350 925 l 497 681 l 645 925 l 980 925 l 630 434 l 630 0 l 353 0 l 353 434 "},"E":{"x_min":74.265625,"x_max":745.5625,"ha":809,"o":"m 687 578 l 687 356 l 352 356 l 352 231 l 745 231 l 745 0 l 74 0 l 74 925 l 745 925 l 745 694 l 352 694 l 352 578 l 687 578 "},"V":{"x_min":10.609375,"x_max":1029.125,"ha":1042,"o":"m 317 925 l 519 357 l 722 925 l 1029 925 l 670 0 l 369 0 l 10 925 l 317 925 "},"Z":{"x_min":45.328125,"x_max":820.796875,"ha":867,"o":"m 820 0 l 45 0 l 45 231 l 463 694 l 45 694 l 45 925 l 820 925 l 820 694 l 402 231 l 820 231 l 820 0 "},"Q":{"x_min":16.390625,"x_max":1023.34375,"ha":1042,"o":"m 1023 462 q 994 299 1023 377 q 913 162 966 222 l 1023 0 l 742 0 l 724 27 q 519 -11 627 -11 q 266 50 381 -11 q 83 220 151 111 q 16 462 16 328 q 83 705 16 597 q 266 875 151 814 q 519 937 381 937 q 773 875 657 937 q 955 705 888 814 q 1023 462 1023 597 m 519 248 q 570 254 546 248 l 508 347 l 693 347 q 722 462 722 397 q 695 574 722 525 q 622 650 668 623 q 519 677 575 677 q 417 650 463 677 q 344 574 371 623 q 317 462 317 525 q 344 351 317 400 q 417 275 371 302 q 519 248 463 248 "},"M":{"x_min":75.234375,"x_max":1157.40625,"ha":1235,"o":"m 683 231 l 542 231 l 341 523 l 341 0 l 75 0 l 75 925 l 384 925 l 617 598 l 842 925 l 1157 925 l 1157 0 l 879 0 l 879 524 l 683 231 "},"C":{"x_min":16.390625,"x_max":820.796875,"ha":867,"o":"m 496 937 q 674 918 600 937 q 820 864 748 899 l 820 566 q 685 649 755 622 q 537 677 615 677 q 425 651 475 677 q 346 576 375 625 q 317 462 317 528 q 346 349 317 397 q 425 274 375 300 q 537 248 475 248 q 685 276 615 248 q 820 359 755 303 l 820 61 q 681 5 756 23 q 496 -11 607 -11 q 254 50 364 -11 q 80 220 144 111 q 16 462 16 328 q 80 705 16 597 q 254 875 144 814 q 496 937 364 937 "},"L":{"x_min":74.265625,"x_max":745.5625,"ha":752,"o":"m 74 0 l 74 925 l 352 925 l 352 260 l 745 260 l 745 0 l 74 0 "},"A":{"x_min":10.609375,"x_max":1029.125,"ha":1042,"o":"m 369 925 l 670 925 l 1029 0 l 751 0 l 689 173 l 350 173 l 288 0 l 10 0 l 369 925 m 519 688 l 431 405 l 608 405 l 519 688 "},"J":{"x_min":-5.78125,"x_max":619.21875,"ha":694,"o":"m 619 363 q 578 166 619 250 q 459 35 537 81 q 272 -11 381 -11 q 119 10 192 -11 q -5 72 45 31 l -5 371 q 103 293 46 322 q 205 264 161 264 q 303 294 265 264 q 341 392 341 324 l 341 925 l 619 925 l 619 363 "},"O":{"x_min":16.390625,"x_max":1023.34375,"ha":1042,"o":"m 519 937 q 773 875 657 937 q 955 705 888 814 q 1023 462 1023 597 q 955 220 1023 328 q 773 50 888 111 q 519 -11 657 -11 q 266 50 381 -11 q 83 220 151 111 q 16 462 16 328 q 83 705 16 597 q 266 875 151 814 q 519 937 381 937 m 519 677 q 417 650 463 677 q 344 574 371 623 q 317 462 317 525 q 344 351 317 400 q 417 275 371 302 q 519 248 463 248 q 622 275 575 248 q 695 351 668 302 q 722 462 722 400 q 695 574 722 525 q 622 650 668 623 q 519 677 575 677 "},"W":{"x_min":-23.140625,"x_max":1412.03125,"ha":1389,"o":"m 543 0 l 266 0 l -23 925 l 254 925 l 405 390 l 555 925 l 833 925 l 983 390 l 1134 925 l 1412 925 l 1122 0 l 844 0 l 694 535 l 543 0 "}," ":{"x_min":0,"x_max":0,"ha":289},"X":{"x_min":2.890625,"x_max":1038.78125,"ha":1042,"o":"m 516 284 l 338 0 l 2 0 l 350 479 l 31 925 l 379 925 l 525 681 l 674 925 l 1009 925 l 691 487 l 1038 0 l 691 0 l 516 284 "},"P":{"x_min":74.265625,"x_max":849.734375,"ha":867,"o":"m 489 925 q 670 879 587 925 q 801 754 753 833 q 849 583 849 676 q 801 412 849 490 q 670 287 753 333 q 489 241 587 241 l 352 241 l 352 0 l 74 0 l 74 925 l 489 925 m 455 472 q 533 504 501 472 q 566 583 566 537 q 533 662 566 629 q 455 694 501 694 l 352 694 l 352 472 l 455 472 "},"B":{"x_min":74.265625,"x_max":884.453125,"ha":925,"o":"m 481 925 q 663 893 584 925 q 784 803 741 861 q 826 670 826 745 q 801 570 826 616 q 732 491 777 525 q 843 399 803 456 q 884 270 884 342 q 840 129 884 190 q 714 34 795 68 q 524 0 632 0 l 74 0 l 74 925 l 481 925 m 471 578 q 527 597 506 578 q 548 646 548 617 q 527 694 548 675 q 471 713 506 713 l 352 713 l 352 578 l 471 578 m 515 212 q 581 235 555 212 q 606 294 606 259 q 581 352 606 328 q 515 376 555 376 l 352 376 l 352 212 l 515 212 "},"H":{"x_min":74.265625,"x_max":965.46875,"ha":1042,"o":"m 363 338 l 363 0 l 74 0 l 74 925 l 363 925 l 363 598 l 676 598 l 676 925 l 965 925 l 965 0 l 676 0 l 676 338 l 363 338 "},"D":{"x_min":74.265625,"x_max":977.046875,"ha":995,"o":"m 473 925 q 726 867 611 925 q 909 702 842 808 q 977 462 977 597 q 909 223 977 328 q 726 58 842 117 q 473 0 611 0 l 74 0 l 74 925 l 473 925 m 473 250 q 576 276 530 250 q 649 349 622 301 q 676 462 676 397 q 649 576 676 528 q 576 649 622 624 q 473 675 530 675 l 352 675 l 352 250 l 473 250 "},"R":{"x_min":74.265625,"x_max":905.671875,"ha":925,"o":"m 489 925 q 670 879 587 925 q 801 754 753 833 q 849 583 849 676 q 812 432 849 502 q 710 313 775 361 l 905 0 l 587 0 l 437 241 l 352 241 l 352 0 l 74 0 l 74 925 l 489 925 m 455 472 q 533 504 501 472 q 566 583 566 537 q 533 662 566 629 q 455 694 501 694 l 352 694 l 352 472 l 455 472 "},"I":{"x_min":91.625,"x_max":369.40625,"ha":463,"o":"m 369 925 l 369 0 l 91 0 l 91 925 l 369 925 "},"G":{"x_min":16.390625,"x_max":878.65625,"ha":925,"o":"m 548 937 q 720 921 629 937 q 878 864 812 905 l 878 585 q 729 652 814 627 q 566 677 645 677 q 382 620 448 677 q 317 461 317 564 q 347 339 317 391 q 431 258 377 286 q 556 229 485 229 q 647 236 602 229 l 647 337 l 519 337 l 519 540 l 878 540 l 878 82 q 707 12 800 36 q 527 -11 615 -11 q 267 50 384 -11 q 83 219 150 111 q 16 462 16 327 q 79 700 16 592 q 262 872 141 808 q 548 937 382 937 "},"U":{"x_min":68.46875,"x_max":913.390625,"ha":984,"o":"m 913 405 q 856 184 913 278 q 703 39 799 89 q 490 -11 606 -11 q 277 39 374 -11 q 124 184 181 89 q 68 405 68 278 l 68 925 l 357 925 l 357 405 q 394 284 357 325 q 490 243 430 243 q 587 284 551 243 q 624 405 624 325 l 624 925 l 913 925 l 913 405 "}}}
